<mxfile host="app.diagrams.net" modified="2024-01-22T16:24:29.438Z" agent="Mozilla/5.0 (Windows NT 10.0; Win64; x64) AppleWebKit/537.36 (KHTML, like Gecko) Chrome/120.0.0.0 Safari/537.36" etag="vs95gXLfOebyIkXph86m" version="22.1.18" type="github">
  <diagram name="Sayfa -1" id="fadJvbO6i5rrJAiDDdf0">
    <mxGraphModel dx="1500" dy="861" grid="1" gridSize="10" guides="1" tooltips="1" connect="1" arrows="1" fold="1" page="1" pageScale="1" pageWidth="1169" pageHeight="827" math="0" shadow="0">
      <root>
        <mxCell id="0" />
        <mxCell id="1" parent="0" />
        <mxCell id="ib1GWJ1PQ4VO_XVAFMHp-1" value="User&lt;br&gt;" style="shape=umlActor;verticalLabelPosition=bottom;verticalAlign=top;html=1;outlineConnect=0;" vertex="1" parent="1">
          <mxGeometry x="210" y="170" width="30" height="60" as="geometry" />
        </mxCell>
        <mxCell id="ib1GWJ1PQ4VO_XVAFMHp-2" value="" style="rounded=0;whiteSpace=wrap;html=1;rotation=90;strokeWidth=0;" vertex="1" parent="1">
          <mxGeometry x="150" y="250" width="970" height="580" as="geometry" />
        </mxCell>
        <mxCell id="ib1GWJ1PQ4VO_XVAFMHp-5" value="server&lt;br&gt;" style="shape=umlActor;verticalLabelPosition=bottom;verticalAlign=top;html=1;outlineConnect=0;" vertex="1" parent="1">
          <mxGeometry x="1050" y="260" width="30" height="60" as="geometry" />
        </mxCell>
        <mxCell id="ib1GWJ1PQ4VO_XVAFMHp-6" value="database" style="shape=umlActor;verticalLabelPosition=bottom;verticalAlign=top;html=1;outlineConnect=0;" vertex="1" parent="1">
          <mxGeometry x="230" y="600" width="30" height="60" as="geometry" />
        </mxCell>
        <mxCell id="ib1GWJ1PQ4VO_XVAFMHp-9" value="&lt;font style=&quot;font-size: 17px;&quot;&gt;displays an object with camera&lt;/font&gt;" style="ellipse;whiteSpace=wrap;html=1;fillColor=#FFE07A;" vertex="1" parent="1">
          <mxGeometry x="510" y="140" width="190" height="110" as="geometry" />
        </mxCell>
        <mxCell id="ib1GWJ1PQ4VO_XVAFMHp-10" value="" style="endArrow=none;html=1;rounded=0;" edge="1" parent="1" source="ib1GWJ1PQ4VO_XVAFMHp-1" target="ib1GWJ1PQ4VO_XVAFMHp-9">
          <mxGeometry width="50" height="50" relative="1" as="geometry">
            <mxPoint x="500" y="650" as="sourcePoint" />
            <mxPoint x="550" y="600" as="targetPoint" />
          </mxGeometry>
        </mxCell>
        <mxCell id="ib1GWJ1PQ4VO_XVAFMHp-11" value="" style="endArrow=none;html=1;rounded=0;exitX=1;exitY=0.5;exitDx=0;exitDy=0;" edge="1" parent="1" source="ib1GWJ1PQ4VO_XVAFMHp-9" target="ib1GWJ1PQ4VO_XVAFMHp-5">
          <mxGeometry width="50" height="50" relative="1" as="geometry">
            <mxPoint x="500" y="440" as="sourcePoint" />
            <mxPoint x="550" y="390" as="targetPoint" />
          </mxGeometry>
        </mxCell>
        <mxCell id="ib1GWJ1PQ4VO_XVAFMHp-12" value="display" style="text;html=1;strokeColor=none;fillColor=none;align=center;verticalAlign=middle;whiteSpace=wrap;rounded=0;" vertex="1" parent="1">
          <mxGeometry x="340" y="170" width="60" height="30" as="geometry" />
        </mxCell>
        <mxCell id="ib1GWJ1PQ4VO_XVAFMHp-13" value="detect" style="text;html=1;strokeColor=none;fillColor=none;align=center;verticalAlign=middle;whiteSpace=wrap;rounded=0;" vertex="1" parent="1">
          <mxGeometry x="830" y="210" width="60" height="30" as="geometry" />
        </mxCell>
        <mxCell id="ib1GWJ1PQ4VO_XVAFMHp-15" value="&lt;font style=&quot;font-size: 17px;&quot;&gt;sends the image output for detected object&lt;/font&gt;" style="ellipse;whiteSpace=wrap;html=1;fillColor=#FFE07A;" vertex="1" parent="1">
          <mxGeometry x="640" y="550" width="190" height="110" as="geometry" />
        </mxCell>
        <mxCell id="ib1GWJ1PQ4VO_XVAFMHp-16" value="" style="endArrow=none;html=1;rounded=0;entryX=0;entryY=1;entryDx=0;entryDy=0;entryPerimeter=0;exitX=1;exitY=0.5;exitDx=0;exitDy=0;" edge="1" parent="1" source="ib1GWJ1PQ4VO_XVAFMHp-15" target="ib1GWJ1PQ4VO_XVAFMHp-5">
          <mxGeometry width="50" height="50" relative="1" as="geometry">
            <mxPoint x="500" y="440" as="sourcePoint" />
            <mxPoint x="550" y="390" as="targetPoint" />
          </mxGeometry>
        </mxCell>
        <mxCell id="ib1GWJ1PQ4VO_XVAFMHp-17" value="send output" style="text;html=1;strokeColor=none;fillColor=none;align=center;verticalAlign=middle;whiteSpace=wrap;rounded=0;" vertex="1" parent="1">
          <mxGeometry x="930" y="470" width="60" height="30" as="geometry" />
        </mxCell>
        <mxCell id="ib1GWJ1PQ4VO_XVAFMHp-21" value="" style="endArrow=none;html=1;rounded=0;entryX=0;entryY=0.5;entryDx=0;entryDy=0;" edge="1" parent="1" source="ib1GWJ1PQ4VO_XVAFMHp-6" target="ib1GWJ1PQ4VO_XVAFMHp-15">
          <mxGeometry width="50" height="50" relative="1" as="geometry">
            <mxPoint x="225" y="478" as="sourcePoint" />
            <mxPoint x="550" y="390" as="targetPoint" />
          </mxGeometry>
        </mxCell>
        <mxCell id="ib1GWJ1PQ4VO_XVAFMHp-22" value="receive output" style="text;html=1;strokeColor=none;fillColor=none;align=center;verticalAlign=middle;whiteSpace=wrap;rounded=0;" vertex="1" parent="1">
          <mxGeometry x="470" y="620" width="60" height="30" as="geometry" />
        </mxCell>
        <mxCell id="ib1GWJ1PQ4VO_XVAFMHp-24" value="&lt;font style=&quot;font-size: 17px;&quot;&gt;sends the text for the image output for speech&lt;/font&gt;" style="ellipse;whiteSpace=wrap;html=1;fillColor=#FFE07A;" vertex="1" parent="1">
          <mxGeometry x="585" y="390" width="195" height="100" as="geometry" />
        </mxCell>
        <mxCell id="ib1GWJ1PQ4VO_XVAFMHp-25" value="" style="endArrow=none;html=1;rounded=0;entryX=0;entryY=0.5;entryDx=0;entryDy=0;exitX=1;exitY=0.3333333333333333;exitDx=0;exitDy=0;exitPerimeter=0;" edge="1" parent="1" source="ib1GWJ1PQ4VO_XVAFMHp-6" target="ib1GWJ1PQ4VO_XVAFMHp-24">
          <mxGeometry width="50" height="50" relative="1" as="geometry">
            <mxPoint x="500" y="440" as="sourcePoint" />
            <mxPoint x="550" y="390" as="targetPoint" />
          </mxGeometry>
        </mxCell>
        <mxCell id="ib1GWJ1PQ4VO_XVAFMHp-26" value="send text" style="text;html=1;strokeColor=none;fillColor=none;align=center;verticalAlign=middle;whiteSpace=wrap;rounded=0;" vertex="1" parent="1">
          <mxGeometry x="410" y="480" width="60" height="30" as="geometry" />
        </mxCell>
        <mxCell id="ib1GWJ1PQ4VO_XVAFMHp-27" value="" style="endArrow=none;html=1;rounded=0;exitX=1;exitY=0.5;exitDx=0;exitDy=0;" edge="1" parent="1" source="ib1GWJ1PQ4VO_XVAFMHp-24" target="ib1GWJ1PQ4VO_XVAFMHp-5">
          <mxGeometry width="50" height="50" relative="1" as="geometry">
            <mxPoint x="500" y="440" as="sourcePoint" />
            <mxPoint x="550" y="390" as="targetPoint" />
          </mxGeometry>
        </mxCell>
        <mxCell id="ib1GWJ1PQ4VO_XVAFMHp-28" value="&lt;font style=&quot;font-size: 17px;&quot;&gt;sends speech&amp;nbsp;&lt;/font&gt;" style="ellipse;whiteSpace=wrap;html=1;fillColor=#FFE07A;" vertex="1" parent="1">
          <mxGeometry x="530" y="280" width="195" height="100" as="geometry" />
        </mxCell>
        <mxCell id="ib1GWJ1PQ4VO_XVAFMHp-29" value="" style="endArrow=none;html=1;rounded=0;exitX=1;exitY=0.5;exitDx=0;exitDy=0;" edge="1" parent="1" source="ib1GWJ1PQ4VO_XVAFMHp-28">
          <mxGeometry width="50" height="50" relative="1" as="geometry">
            <mxPoint x="500" y="440" as="sourcePoint" />
            <mxPoint x="1050" y="290" as="targetPoint" />
          </mxGeometry>
        </mxCell>
        <mxCell id="ib1GWJ1PQ4VO_XVAFMHp-30" value="" style="endArrow=none;html=1;rounded=0;exitX=1;exitY=1;exitDx=0;exitDy=0;exitPerimeter=0;entryX=0;entryY=0.5;entryDx=0;entryDy=0;" edge="1" parent="1" source="ib1GWJ1PQ4VO_XVAFMHp-1" target="ib1GWJ1PQ4VO_XVAFMHp-28">
          <mxGeometry width="50" height="50" relative="1" as="geometry">
            <mxPoint x="500" y="440" as="sourcePoint" />
            <mxPoint x="550" y="390" as="targetPoint" />
          </mxGeometry>
        </mxCell>
        <mxCell id="ib1GWJ1PQ4VO_XVAFMHp-31" value="receive text" style="text;html=1;strokeColor=none;fillColor=none;align=center;verticalAlign=middle;whiteSpace=wrap;rounded=0;" vertex="1" parent="1">
          <mxGeometry x="860" y="390" width="60" height="30" as="geometry" />
        </mxCell>
        <mxCell id="ib1GWJ1PQ4VO_XVAFMHp-32" value="send speech" style="text;html=1;strokeColor=none;fillColor=none;align=center;verticalAlign=middle;whiteSpace=wrap;rounded=0;" vertex="1" parent="1">
          <mxGeometry x="820" y="320" width="60" height="30" as="geometry" />
        </mxCell>
        <mxCell id="ib1GWJ1PQ4VO_XVAFMHp-33" value="listen speech" style="text;html=1;strokeColor=none;fillColor=none;align=center;verticalAlign=middle;whiteSpace=wrap;rounded=0;" vertex="1" parent="1">
          <mxGeometry x="350" y="290" width="60" height="30" as="geometry" />
        </mxCell>
      </root>
    </mxGraphModel>
  </diagram>
</mxfile>
